fd_9_states
version=1
nRows=35
nColumns=17
inDegrees=yes

# SIMM Motion File Header:
name fd_9_states
datacolumns 17
datarows 35
otherdata 1
range 0.873559 0.885328
endheader
time	/jointset/r_shoulder/r_shoulder_elev/value	/jointset/r_shoulder/r_shoulder_elev/speed	/jointset/r_elbow/r_elbow_flex/value	/jointset/r_elbow/r_elbow_flex/speed	/forceset/TRIlong/activation	/forceset/TRIlong/fiber_length	/forceset/TRIlat/activation	/forceset/TRIlat/fiber_length	/forceset/TRImed/activation	/forceset/TRImed/fiber_length	/forceset/BIClong/activation	/forceset/BIClong/fiber_length	/forceset/BICshort/activation	/forceset/BICshort/fiber_length	/forceset/BRA/activation	/forceset/BRA/fiber_length
      0.873559	     10.056519	     40.221200	    298.555650	    440.097178	      0.044700	      0.152531	      0.089006	      0.080105	      0.085537	      0.075127	      0.045181	      0.135301	      0.022258	      0.137745	      0.022104	      0.073528
      0.873905	     10.070360	     39.753848	    298.708128	    440.872692	      0.045013	      0.152477	      0.088912	      0.080044	      0.085439	      0.075066	      0.045058	      0.135367	      0.022248	      0.137815	      0.022103	      0.073596
      0.874251	     10.084040	     39.281958	    298.860876	    441.662200	      0.045308	      0.152424	      0.088819	      0.079983	      0.085342	      0.075005	      0.044935	      0.135433	      0.022237	      0.137885	      0.022103	      0.073637
      0.874597	     10.097556	     38.813039	    299.013897	    442.441467	      0.045585	      0.152371	      0.088726	      0.079921	      0.085246	      0.074944	      0.044813	      0.135499	      0.022227	      0.137955	      0.022102	      0.073705
      0.874944	     10.110910	     38.339623	    299.167189	    443.234659	      0.045845	      0.152317	      0.088633	      0.079859	      0.085150	      0.074882	      0.044692	      0.135564	      0.022217	      0.138024	      0.022102	      0.073746
      0.875290	     10.124100	     37.869270	    299.320754	    444.017401	      0.046090	      0.152263	      0.088541	      0.079798	      0.085054	      0.074820	      0.044571	      0.135630	      0.022206	      0.138094	      0.022101	      0.073814
      0.875636	     10.137126	     37.394462	    299.474592	    444.813990	      0.046320	      0.152209	      0.088450	      0.079736	      0.084959	      0.074759	      0.044451	      0.135695	      0.022196	      0.138164	      0.022101	      0.073855
      0.875982	     10.149989	     36.922811	    299.628705	    445.599920	      0.046537	      0.152155	      0.088359	      0.079674	      0.084864	      0.074697	      0.044331	      0.135761	      0.022186	      0.138233	      0.022100	      0.073924
      0.876328	     10.162688	     36.446749	    299.783091	    446.399616	      0.046741	      0.152101	      0.088269	      0.079612	      0.084770	      0.074635	      0.044212	      0.135826	      0.022176	      0.138302	      0.022100	      0.073964
      0.876674	     10.175222	     35.973934	    299.937753	    447.188455	      0.046932	      0.152047	      0.088179	      0.079550	      0.084677	      0.074572	      0.044094	      0.135892	      0.022166	      0.138372	      0.022099	      0.074033
      0.877020	     10.187592	     35.496750	    300.092690	    447.990980	      0.047112	      0.151992	      0.088089	      0.079487	      0.084584	      0.074510	      0.043976	      0.135957	      0.022156	      0.138441	      0.022099	      0.074073
      0.877367	     10.199797	     35.022898	    300.247903	    448.782459	      0.047282	      0.151938	      0.088001	      0.079425	      0.084492	      0.074448	      0.043859	      0.136022	      0.022146	      0.138510	      0.022098	      0.074142
      0.877713	     10.211838	     34.544716	    300.403392	    449.587551	      0.047442	      0.151883	      0.087912	      0.079362	      0.084400	      0.074385	      0.043742	      0.136087	      0.022136	      0.138579	      0.022098	      0.074183
      0.878059	     10.223713	     34.069948	    300.559159	    450.381420	      0.047592	      0.151828	      0.087824	      0.079300	      0.084308	      0.074323	      0.043626	      0.136152	      0.022126	      0.138648	      0.022098	      0.074252
      0.878405	     10.235424	     33.590887	    300.715202	    451.188834	      0.047733	      0.151773	      0.087737	      0.079237	      0.084218	      0.074260	      0.043511	      0.136217	      0.022117	      0.138716	      0.022097	      0.074292
      0.878751	     10.246969	     33.115315	    300.871523	    451.984862	      0.047866	      0.151718	      0.087650	      0.079174	      0.084127	      0.074197	      0.043396	      0.136282	      0.022107	      0.138785	      0.022097	      0.074361
      0.879097	     10.258349	     32.635485	    301.028121	    452.794372	      0.047991	      0.151662	      0.087564	      0.079111	      0.084038	      0.074134	      0.043282	      0.136347	      0.022097	      0.138854	      0.022096	      0.074402
      0.879444	     10.269564	     32.159215	    301.184998	    453.592348	      0.048108	      0.151607	      0.087478	      0.079048	      0.083948	      0.074071	      0.043169	      0.136412	      0.022088	      0.138922	      0.022096	      0.074470
      0.879790	     10.280613	     31.678718	    301.342153	    454.403745	      0.048219	      0.151551	      0.087393	      0.078985	      0.083859	      0.074008	      0.043056	      0.136477	      0.022078	      0.138990	      0.022095	      0.074511
      0.880136	     10.291496	     31.201846	    301.499588	    455.203474	      0.048361	      0.151495	      0.087309	      0.078921	      0.083772	      0.073945	      0.042943	      0.136542	      0.022068	      0.139058	      0.022094	      0.074580
      0.880482	     10.302213	     30.720729	    301.657301	    456.016701	      0.048919	      0.151439	      0.087236	      0.078858	      0.083693	      0.073882	      0.042832	      0.136606	      0.022059	      0.139126	      0.022086	      0.074621
      0.880828	     10.312765	     30.243100	    301.815295	    456.818630	      0.049501	      0.151382	      0.087166	      0.078794	      0.083615	      0.073818	      0.042721	      0.136671	      0.022049	      0.139194	      0.022076	      0.074690
      0.881174	     10.323150	     29.760891	    301.973567	    457.634945	      0.050048	      0.151325	      0.087095	      0.078730	      0.083538	      0.073755	      0.042610	      0.136735	      0.022040	      0.139262	      0.022067	      0.074730
      0.881521	     10.333369	     29.282020	    302.132121	    458.440324	      0.050563	      0.151267	      0.087026	      0.078667	      0.083461	      0.073691	      0.042500	      0.136800	      0.022031	      0.139330	      0.022057	      0.074800
      0.881867	     10.343421	     28.798424	    302.290956	    459.260454	      0.051047	      0.151209	      0.086956	      0.078603	      0.083385	      0.073627	      0.042390	      0.136864	      0.022021	      0.139397	      0.022048	      0.074840
      0.882213	     10.353307	     28.318109	    302.450074	    460.069808	      0.051502	      0.151150	      0.086887	      0.078539	      0.083309	      0.073563	      0.042281	      0.136928	      0.022012	      0.139465	      0.022038	      0.074909
      0.882559	     10.363025	     27.833017	    302.609473	    460.894053	      0.051930	      0.151092	      0.086818	      0.078475	      0.083234	      0.073499	      0.042173	      0.136992	      0.022003	      0.139532	      0.022029	      0.074950
      0.882905	     10.372576	     27.351213	    302.769157	    461.707526	      0.052333	      0.151033	      0.086750	      0.078410	      0.083159	      0.073435	      0.042065	      0.137056	      0.021993	      0.139599	      0.022019	      0.075019
      0.883251	     10.381960	     26.864632	    302.929124	    462.535904	      0.052712	      0.150974	      0.086682	      0.078346	      0.083084	      0.073371	      0.041958	      0.137120	      0.021984	      0.139666	      0.022010	      0.075060
      0.883597	     10.391175	     26.381385	    303.089377	    463.353426	      0.053069	      0.150915	      0.086615	      0.078281	      0.083010	      0.073307	      0.041851	      0.137184	      0.021975	      0.139733	      0.022001	      0.075129
      0.883944	     10.400223	     25.893391	    303.249914	    464.185794	      0.053404	      0.150856	      0.086547	      0.078217	      0.082937	      0.073242	      0.041745	      0.137248	      0.021966	      0.139800	      0.021992	      0.075169
      0.884290	     10.409102	     25.408793	    303.410739	    465.007179	      0.053720	      0.150797	      0.086481	      0.078152	      0.082863	      0.073178	      0.041640	      0.137312	      0.021957	      0.139866	      0.021982	      0.075239
      0.884636	     10.417813	     24.919494	    303.571850	    465.843313	      0.054018	      0.150737	      0.086414	      0.078087	      0.082790	      0.073113	      0.041535	      0.137375	      0.021948	      0.139933	      0.021973	      0.075279
      0.884982	     10.426355	     24.433663	    303.733249	    466.668317	      0.054298	      0.150677	      0.086348	      0.078023	      0.082718	      0.073048	      0.041430	      0.137439	      0.021939	      0.139999	      0.021964	      0.075349
      0.885328	     10.434728	     23.943185	    303.894935	    467.507953	      0.054562	      0.150618	      0.086283	      0.077957	      0.082646	      0.072983	      0.041326	      0.137502	      0.021930	      0.140065	      0.021955	      0.075389
